<mxfile host="app.diagrams.net" agent="Mozilla/5.0 (X11; Linux x86_64; rv:132.0) Gecko/20100101 Firefox/132.0" version="26.0.14">
  <diagram name="Page-1" id="DsCgQ1Q_EIq_PhAUcn4X">
    <mxGraphModel dx="1659" dy="450" grid="1" gridSize="10" guides="1" tooltips="1" connect="1" arrows="1" fold="1" page="1" pageScale="1" pageWidth="850" pageHeight="1100" math="0" shadow="0">
      <root>
        <mxCell id="0" />
        <mxCell id="1" parent="0" />
        <mxCell id="ajfVfJXctyfox8puzt3M-10" value="" style="rounded=1;whiteSpace=wrap;html=1;" parent="1" vertex="1">
          <mxGeometry x="110" y="300" width="530" height="450" as="geometry" />
        </mxCell>
        <mxCell id="ajfVfJXctyfox8puzt3M-11" value="" style="rounded=1;whiteSpace=wrap;html=1;" parent="1" vertex="1">
          <mxGeometry x="130" y="450" width="490" height="280" as="geometry" />
        </mxCell>
        <mxCell id="X-89o3NhjQCAKY9GYFiA-1" style="edgeStyle=orthogonalEdgeStyle;rounded=0;orthogonalLoop=1;jettySize=auto;html=1;entryX=1;entryY=0.5;entryDx=0;entryDy=0;exitX=0;exitY=0.5;exitDx=0;exitDy=0;" edge="1" parent="1" source="8FXwJElPTa8F4Fa-2RyD-4" target="8FXwJElPTa8F4Fa-2RyD-6">
          <mxGeometry relative="1" as="geometry" />
        </mxCell>
        <mxCell id="8FXwJElPTa8F4Fa-2RyD-4" value="" style="rounded=1;whiteSpace=wrap;html=1;" parent="1" vertex="1">
          <mxGeometry x="480" y="460" width="120" height="260" as="geometry" />
        </mxCell>
        <mxCell id="ajfVfJXctyfox8puzt3M-8" style="shape=image;editableCssRules=.*;image=data:image/svg+xml,PHN2ZyB2aWV3Qm94PSIwIDAgMjQgMjQiIHhtbG5zPSJodHRwOi8vd3d3LnczLm9yZy8yMDAwL3N2ZyI+PHN0eWxlPip7ZmlsbDojMzc3NkFCfTwvc3R5bGU+PHBhdGggZD0iTTE0LjI1LjE4bC45LjIuNzMuMjYuNTkuMy40NS4zMi4zNC4zNC4yNS4zNC4xNi4zMy4xLjMuMDQuMjYuMDIuMi0uMDEuMTNWOC41bC0uMDUuNjMtLjEzLjU1LS4yMS40Ni0uMjYuMzgtLjMuMzEtLjMzLjI1LS4zNS4xOS0uMzUuMTQtLjMzLjEtLjMuMDctLjI2LjA0LS4yMS4wMkg4Ljc3bC0uNjkuMDUtLjU5LjE0LS41LjIyLS40MS4yNy0uMzMuMzItLjI3LjM1LS4yLjM2LS4xNS4zNy0uMS4zNS0uMDcuMzItLjA0LjI3LS4wMi4yMXYzLjA2SDMuMTdsLS4yMS0uMDMtLjI4LS4wNy0uMzItLjEyLS4zNS0uMTgtLjM2LS4yNi0uMzYtLjM2LS4zNS0uNDYtLjMyLS41OS0uMjgtLjczLS4yMS0uODgtLjE0LTEuMDUtLjA1LTEuMjMuMDYtMS4yMi4xNi0xLjA0LjI0LS44Ny4zMi0uNzEuMzYtLjU3LjQtLjQ0LjQyLS4zMy40Mi0uMjQuNC0uMTYuMzYtLjEuMzItLjA1LjI0LS4wMWguMTZsLjA2LjAxaDguMTZ2LS44M0g2LjE4bC0uMDEtMi43NS0uMDItLjM3LjA1LS4zNC4xMS0uMzEuMTctLjI4LjI1LS4yNi4zMS0uMjMuMzgtLjIuNDQtLjE4LjUxLS4xNS41OC0uMTIuNjQtLjEuNzEtLjA2Ljc3LS4wNC44NC0uMDIgMS4yNy4wNXptLTYuMyAxLjk4bC0uMjMuMzMtLjA4LjQxLjA4LjQxLjIzLjM0LjMzLjIyLjQxLjA5LjQxLS4wOS4zMy0uMjIuMjMtLjM0LjA4LS40MS0uMDgtLjQxLS4yMy0uMzMtLjMzLS4yMi0uNDEtLjA5LS40MS4wOXptMTMuMDkgMy45NWwuMjguMDYuMzIuMTIuMzUuMTguMzYuMjcuMzYuMzUuMzUuNDcuMzIuNTkuMjguNzMuMjEuODguMTQgMS4wNC4wNSAxLjIzLS4wNiAxLjIzLS4xNiAxLjA0LS4yNC44Ni0uMzIuNzEtLjM2LjU3LS40LjQ1LS40Mi4zMy0uNDIuMjQtLjQuMTYtLjM2LjA5LS4zMi4wNS0uMjQuMDItLjE2LS4wMWgtOC4yMnYuODJoNS44NGwuMDEgMi43Ni4wMi4zNi0uMDUuMzQtLjExLjMxLS4xNy4yOS0uMjUuMjUtLjMxLjI0LS4zOC4yLS40NC4xNy0uNTEuMTUtLjU4LjEzLS42NC4wOS0uNzEuMDctLjc3LjA0LS44NC4wMS0xLjI3LS4wNC0xLjA3LS4xNC0uOS0uMi0uNzMtLjI1LS41OS0uMy0uNDUtLjMzLS4zNC0uMzQtLjI1LS4zNC0uMTYtLjMzLS4xLS4zLS4wNC0uMjUtLjAyLS4yLjAxLS4xM3YtNS4zNGwuMDUtLjY0LjEzLS41NC4yMS0uNDYuMjYtLjM4LjMtLjMyLjMzLS4yNC4zNS0uMi4zNS0uMTQuMzMtLjEuMy0uMDYuMjYtLjA0LjIxLS4wMi4xMy0uMDFoNS44NGwuNjktLjA1LjU5LS4xNC41LS4yMS40MS0uMjguMzMtLjMyLjI3LS4zNS4yLS4zNi4xNS0uMzYuMS0uMzUuMDctLjMyLjA0LS4yOC4wMi0uMjFWNi4wN2gyLjA5bC4xNC4wMXptLTYuNDcgMTQuMjVsLS4yMy4zMy0uMDguNDEuMDguNDEuMjMuMzMuMzMuMjMuNDEuMDguNDEtLjA4LjMzLS4yMy4yMy0uMzMuMDgtLjQxLS4wOC0uNDEtLjIzLS4zMy0uMzMtLjIzLS40MS0uMDgtLjQxLjA4eiIvPjwvc3ZnPg==;" parent="1" vertex="1">
          <mxGeometry x="270" y="350" width="70" height="77" as="geometry" />
        </mxCell>
        <mxCell id="ajfVfJXctyfox8puzt3M-6" style="shape=image;editableCssRules=.*;image=data:image/svg+xml,PHN2ZyB2aWV3Qm94PSIwIDAgMjQgMjQiIHhtbG5zPSJodHRwOi8vd3d3LnczLm9yZy8yMDAwL3N2ZyI+PHN0eWxlPip7ZmlsbDojMjQ5NkVEfTwvc3R5bGU+PHBhdGggZD0iTTEzLjk4MyAxMS4wNzhoMi4xMTlhLjE4Ni4xODYgMCAwMC4xODYtLjE4NVY5LjAwNmEuMTg2LjE4NiAwIDAwLS4xODYtLjE4NmgtMi4xMTlhLjE4NS4xODUgMCAwMC0uMTg1LjE4NXYxLjg4OGMwIC4xMDIuMDgzLjE4NS4xODUuMTg1bS0yLjk1NC01LjQzaDIuMTE4YS4xODYuMTg2IDAgMDAuMTg2LS4xODZWMy41NzRhLjE4Ni4xODYgMCAwMC0uMTg2LS4xODVoLTIuMTE4YS4xODUuMTg1IDAgMDAtLjE4NS4xODV2MS44ODhjMCAuMTAyLjA4Mi4xODUuMTg1LjE4NW0wIDIuNzE2aDIuMTE4YS4xODcuMTg3IDAgMDAuMTg2LS4xODZWNi4yOWEuMTg2LjE4NiAwIDAwLS4xODYtLjE4NWgtMi4xMThhLjE4NS4xODUgMCAwMC0uMTg1LjE4NXYxLjg4N2MwIC4xMDIuMDgyLjE4NS4xODUuMTg2bS0yLjkzIDBoMi4xMmEuMTg2LjE4NiAwIDAwLjE4NC0uMTg2VjYuMjlhLjE4NS4xODUgMCAwMC0uMTg1LS4xODVIOC4xYS4xODUuMTg1IDAgMDAtLjE4NS4xODV2MS44ODdjMCAuMTAyLjA4My4xODUuMTg1LjE4Nm0tMi45NjQgMGgyLjExOWEuMTg2LjE4NiAwIDAwLjE4NS0uMTg2VjYuMjlhLjE4NS4xODUgMCAwMC0uMTg1LS4xODVINS4xMzZhLjE4Ni4xODYgMCAwMC0uMTg2LjE4NXYxLjg4N2MwIC4xMDIuMDg0LjE4NS4xODYuMTg2bTUuODkzIDIuNzE1aDIuMTE4YS4xODYuMTg2IDAgMDAuMTg2LS4xODVWOS4wMDZhLjE4Ni4xODYgMCAwMC0uMTg2LS4xODZoLTIuMTE4YS4xODUuMTg1IDAgMDAtLjE4NS4xODV2MS44ODhjMCAuMTAyLjA4Mi4xODUuMTg1LjE4NW0tMi45MyAwaDIuMTJhLjE4NS4xODUgMCAwMC4xODQtLjE4NVY5LjAwNmEuMTg1LjE4NSAwIDAwLS4xODQtLjE4NmgtMi4xMmEuMTg1LjE4NSAwIDAwLS4xODQuMTg1djEuODg4YzAgLjEwMi4wODMuMTg1LjE4NS4xODVtLTIuOTY0IDBoMi4xMTlhLjE4NS4xODUgMCAwMC4xODUtLjE4NVY5LjAwNmEuMTg1LjE4NSAwIDAwLS4xODQtLjE4NmgtMi4xMmEuMTg2LjE4NiAwIDAwLS4xODYuMTg2djEuODg3YzAgLjEwMi4wODQuMTg1LjE4Ni4xODVtLTIuOTIgMGgyLjEyYS4xODUuMTg1IDAgMDAuMTg0LS4xODVWOS4wMDZhLjE4NS4xODUgMCAwMC0uMTg0LS4xODZoLTIuMTJhLjE4NS4xODUgMCAwMC0uMTg0LjE4NXYxLjg4OGMwIC4xMDIuMDgyLjE4NS4xODUuMTg1TTIzLjc2MyA5Ljg5Yy0uMDY1LS4wNTEtLjY3Mi0uNTEtMS45NTQtLjUxLS4zMzguMDAxLS42NzYuMDMtMS4wMS4wODctLjI0OC0xLjctMS42NTMtMi41My0xLjcxNi0yLjU2NmwtLjM0NC0uMTk5LS4yMjYuMzI3Yy0uMjg0LjQzOC0uNDkuOTIyLS42MTIgMS40My0uMjMuOTctLjA5IDEuODgyLjQwMyAyLjY2MS0uNTk1LjMzMi0xLjU1LjQxMy0xLjc0NC40MkguNzUxYS43NTEuNzUxIDAgMDAtLjc1Ljc0OCAxMS4zNzYgMTEuMzc2IDAgMDAuNjkyIDQuMDYyYy41NDUgMS40MjggMS4zNTUgMi40OCAyLjQxIDMuMTI0IDEuMTguNzIzIDMuMSAxLjEzNyA1LjI3NSAxLjEzNy45ODMuMDAzIDEuOTYzLS4wODYgMi45My0uMjY2YTEyLjI0OCAxMi4yNDggMCAwMDMuODIzLTEuMzg5Yy45OC0uNTY3IDEuODYtMS4yODggMi42MS0yLjEzNiAxLjI1Mi0xLjQxOCAxLjk5OC0yLjk5NyAyLjU1My00LjRoLjIyMWMxLjM3MiAwIDIuMjE1LS41NDkgMi42OC0xLjAwOS4zMDktLjI5My41NS0uNjUuNzA3LTEuMDQ2bC4wOTgtLjI4OFoiLz48L3N2Zz4=;" parent="1" vertex="1">
          <mxGeometry x="170" y="350" width="86" height="82" as="geometry" />
        </mxCell>
        <mxCell id="8FXwJElPTa8F4Fa-2RyD-10" style="edgeStyle=orthogonalEdgeStyle;rounded=0;orthogonalLoop=1;jettySize=auto;html=1;entryX=0;entryY=0.25;entryDx=0;entryDy=0;" parent="1" source="ajfVfJXctyfox8puzt3M-12" target="8FXwJElPTa8F4Fa-2RyD-6" edge="1">
          <mxGeometry relative="1" as="geometry" />
        </mxCell>
        <mxCell id="ajfVfJXctyfox8puzt3M-12" value="Actor" style="shape=umlActor;verticalLabelPosition=bottom;verticalAlign=top;html=1;outlineConnect=0;" parent="1" vertex="1">
          <mxGeometry x="-80" y="495" width="40" height="60" as="geometry" />
        </mxCell>
        <mxCell id="ajfVfJXctyfox8puzt3M-9" style="shape=image;editableCssRules=.*;image=data:image/svg+xml,PHN2ZyB2aWV3Qm94PSIwIDAgMjQgMjQiIHhtbG5zPSJodHRwOi8vd3d3LnczLm9yZy8yMDAwL3N2ZyI+PHN0eWxlPip7ZmlsbDojQzkyNUQxfTwvc3R5bGU+PHBhdGggZD0ibTE2LjUwNTMgMjEuMDk0Ny43MTU4LjQ2MzJDMTYuMjUyNiAyMy4wMzE2IDEzLjA5NDcgMjQgOS4zODk1IDI0Yy00LjYzMTYgMC04LjEyNjMtMS40NzM3LTguMTI2My0zLjQxMDVWMy4zNjg1QzEuMjYzMiAxLjcyNjIgNC4xMjYzIDAgOS40NzM3IDBjNS4zNDc0IDAgOC4yMTA1IDEuNzI2MyA4LjIxMDUgMy4zNjg0djIuOTA1M2gtLjg0MjFWNC44ODQyYy0xLjIyMSAxLjAxMDUtMy43MDUzIDEuODEwNS03LjM2ODQgMS44MTA1LTMuNjYzMiAwLTYuMTQ3NC0uOC03LjM2ODQtMS44MTA1djQuOGMuMzM2OCAxLjE3OSAzLjIgMi4zNTc5IDcuMjQyIDIuMzU3OXExLjA5NDggMCAyLjEwNTMtLjEyNjNsLjEyNjMuODQycS0xLjA5NDcuMTI2NC0yLjIzMTUuMTI2NGMtMy4yNDIxIDAtNS45MzY5LS43MTU4LTcuMjQyMS0xLjgxMDV2NC41MDUyYy4zMzY4IDEuMTM2OSAzLjIgMi4zMTU4IDcuMjQyIDIuMzE1OHExLjA1MjcgMCAyLjEwNTMtLjA4NDJsLjEyNjMuOHEtMS4xMzY4LjEyNjMtMi4yMzE1LjEyNjNjLTMuMjQyMSAwLTUuOTM2OS0uNzE1Ny03LjI0MjEtMS44MTA1djMuNjYzMmMwIDEuMjIxIDIuOTg5NCAyLjU2ODQgNy4yODQyIDIuNTY4NCAzLjc4OTQgMCA2LjQ0Mi0xLjA1MjYgNy4xMTU4LTIuMDYzMnptLTE0LjQtMTcuNzI2M2MwIDEuMTc5IDMuMDMxNSAyLjQ4NDIgNy4zNjg0IDIuNDg0MiA0LjMzNjggMCA3LjM2ODQtMS4zMDUyIDcuMzY4NC0yLjQ4NDIgMC0xLjIyMS0zLjAzMTYtMi41MjYzLTcuMzY4NC0yLjUyNjMtNC4zMzY5IDAtNy4zNjg0IDEuMzA1My03LjM2ODQgMi41MjYzem0yMC42MzE1IDcuNjYzMnY5LjA5NDdjMCAuMjUyNi0uMTY4NC40MjEtLjQyMS40MjFoLThjLS4yNTI2IDAtLjQyMS0uMTY4NC0uNDIxLS40MjFWOS4yMjExYzAtLjIxMDYuMTY4NC0uNDIxMS40MjEtLjQyMTFoNC42MzE2bC0uNzE1OC0uODQyMWgtNS4xNzlWMTguMDIxaC40MjF2Ljg0MmgtLjg0MmMtLjI1MjcgMC0uNDIxLS4xNjg0LS40MjEtLjQyMVY3LjUzNjhjMC0uMjEwNS4xNjgzLS40MjEuNDIxLS40MjFoNS44MTA1Yy4xMjYzIDAgLjI1MjYuMDg0Mi4yOTQ3LjE2ODRMMjAuMDQyMSA4LjhoLjQ2MzJxLjE2ODQgMCAuMjk0Ny4xMjYzbDEuODEwNSAxLjgxMDVxLjEyNjMuMTI2NC4xMjYzLjI5NDh6bS0uODQyLjcxNThoLTIuMTA1M2MtLjI1MjcgMC0uNDIxLS4xNjg1LS40MjEtLjQyMVY5LjY0MmgtNC42MzE3djEwLjA2MzJoNy4xNTh6bS0yLjQ0MjIuOTY4NGMuMjUyNyAwIC40NjMyLjA4NDIuNTg5NS4yNTI2LjI1MjYuMzM2OS4yMTA1LjguMjEwNS45Njg0IDAgLjg4NDMuNTA1MyAxLjA1MjcuNTQ3NCAxLjA5NDguMTY4NC4wNDIuMjk0Ny4yMTA1LjI5NDcuNDIxIDAgLjE2ODUtLjEyNjMuMzM2OS0uMjk0Ny4zNzktLjA0MjEgMC0uNTQ3NC4yMTA1LS41NDc0IDEuMDk0NyAwIC41MDUzLS4yNTI2IDEuMDUyNi0uOCAxLjA1MjZoLS4yOTQ3di0uODQyaC4yMTA1YzAtLjA0MjIuMDQyMS0uMTI2NC4wNDIxLS4yMTA2IDAtLjc1NzkuMjUyNy0xLjIyMS41MDUzLTEuNTE1OC0uMjUyNi0uMjUyNi0uNTA1My0uNzU3OS0uNTA1My0xLjUxNTh2LS4zMzY4aC0uMjUyNnYtLjg0MjF6bS43NTgtMS44MTA1aDEuMzQ3M0wyMC4yOTQ3IDkuNjQyaC0uMDg0MnptLTIuNzM3IDEuODEwNWguMzM3di44NDJoLS4yNTI3di4yMTA2YzAgLjc1OC0uMjUyNiAxLjIyMS0uNTQ3NCAxLjUxNTguMjk0OC4yOTQ3LjU0NzQuNzU3OS41NDc0IDEuNTE1OHEwIC4wNDIxLS4wNDIxLjA4NDJ2LjI5NDdoLjI5NDd2Ljg0MjJoLS4zMzY4Yy0uMjEwNSAwLS40MjEtLjEyNjQtLjU4OTUtLjI5NDgtLjI1MjYtLjI5NDctLjIxMDUtLjgtLjE2ODQtLjk2ODQtLjA0MjEtLjg4NDItLjUwNTMtMS4wNTI2LS41ODk1LTEuMDUyNi0uMTY4NC0uMDQyMS0uMjk0Ny0uMjUyNy0uMjk0Ny0uNDIxIDAtLjE2ODUuMTI2My0uMzM3LjMzNjgtLjM3OS4wNDIxLS4wNDIxLjU0NzQtLjIxMDYuNTQ3NC0xLjEzNjktLjA0MjEtLjQ2MzEuMjEwNS0xLjA1MjYuNzU3OS0xLjA1MjZ6Ii8+PC9zdmc+;" parent="1" vertex="1">
          <mxGeometry x="505" y="555" width="70" height="80" as="geometry" />
        </mxCell>
        <mxCell id="8FXwJElPTa8F4Fa-2RyD-1" value="Send file" style="text;html=1;align=center;verticalAlign=middle;whiteSpace=wrap;rounded=0;" parent="1" vertex="1">
          <mxGeometry y="495" width="60" height="30" as="geometry" />
        </mxCell>
        <mxCell id="8FXwJElPTa8F4Fa-2RyD-3" value="&lt;div&gt;Stores on file system&lt;/div&gt;" style="text;html=1;align=center;verticalAlign=middle;whiteSpace=wrap;rounded=0;" parent="1" vertex="1">
          <mxGeometry x="300" y="490" width="140" height="30" as="geometry" />
        </mxCell>
        <mxCell id="8FXwJElPTa8F4Fa-2RyD-11" style="edgeStyle=orthogonalEdgeStyle;rounded=0;orthogonalLoop=1;jettySize=auto;html=1;entryX=0;entryY=0.25;entryDx=0;entryDy=0;exitX=1;exitY=0.25;exitDx=0;exitDy=0;" parent="1" source="8FXwJElPTa8F4Fa-2RyD-6" target="8FXwJElPTa8F4Fa-2RyD-4" edge="1">
          <mxGeometry relative="1" as="geometry" />
        </mxCell>
        <mxCell id="X-89o3NhjQCAKY9GYFiA-3" style="edgeStyle=orthogonalEdgeStyle;rounded=0;orthogonalLoop=1;jettySize=auto;html=1;" edge="1" parent="1" source="8FXwJElPTa8F4Fa-2RyD-6">
          <mxGeometry relative="1" as="geometry">
            <mxPoint x="-40" y="591" as="targetPoint" />
          </mxGeometry>
        </mxCell>
        <mxCell id="8FXwJElPTa8F4Fa-2RyD-6" value="" style="rounded=1;whiteSpace=wrap;html=1;" parent="1" vertex="1">
          <mxGeometry x="140" y="460.01" width="120" height="262.5" as="geometry" />
        </mxCell>
        <mxCell id="ajfVfJXctyfox8puzt3M-7" style="shape=image;editableCssRules=.*;image=data:image/svg+xml,PHN2ZyB2aWV3Qm94PSIwIDAgMjQgMjQiIHhtbG5zPSJodHRwOi8vd3d3LnczLm9yZy8yMDAwL3N2ZyI+PHN0eWxlPip7ZmlsbDojMDA5Njg4fTwvc3R5bGU+PHBhdGggZD0iTTEyIC4wMzg3QzUuMzcyOS4wMzg0LjAwMDMgNS4zOTMxIDAgMTEuOTk4OGMtLjAwMSA2LjYwNjYgNS4zNzIgMTEuOTYyOCAxMiAxMS45NjI1IDYuNjI4LjAwMDMgMTIuMDAxLTUuMzU1OSAxMi0xMS45NjI1LS4wMDAzLTYuNjA1Ny01LjM3MjktMTEuOTYwNC0xMi0xMS45Nm0tLjgyOSA1LjQxNTNoNy41NWwtNy41ODA1IDUuMzI4NGg1LjE4MjhMNS4yNzkgMTguNTQzNnEyLjk0NjYtNi41NDQ0IDUuODkyLTEzLjA4OTYiLz48L3N2Zz4=;" parent="1" vertex="1">
          <mxGeometry x="175" y="549.13" width="70" height="84.25" as="geometry" />
        </mxCell>
        <mxCell id="8FXwJElPTa8F4Fa-2RyD-7" value="&lt;font style=&quot;font-size: 18px;&quot;&gt;Container&lt;/font&gt;" style="text;html=1;align=center;verticalAlign=middle;whiteSpace=wrap;rounded=0;" parent="1" vertex="1">
          <mxGeometry x="345" y="320" width="60" height="30" as="geometry" />
        </mxCell>
        <mxCell id="8FXwJElPTa8F4Fa-2RyD-8" value="Server" style="text;html=1;align=center;verticalAlign=middle;whiteSpace=wrap;rounded=0;" parent="1" vertex="1">
          <mxGeometry x="140" y="465" width="140" height="30" as="geometry" />
        </mxCell>
        <mxCell id="8FXwJElPTa8F4Fa-2RyD-9" value="&lt;div&gt;Volume&lt;/div&gt;" style="text;html=1;align=center;verticalAlign=middle;whiteSpace=wrap;rounded=0;" parent="1" vertex="1">
          <mxGeometry x="470" y="470" width="140" height="30" as="geometry" />
        </mxCell>
        <mxCell id="X-89o3NhjQCAKY9GYFiA-2" value="&lt;div&gt;Returns the file path&lt;br&gt;&lt;/div&gt;" style="text;html=1;align=center;verticalAlign=middle;whiteSpace=wrap;rounded=0;" vertex="1" parent="1">
          <mxGeometry x="305" y="555" width="140" height="30" as="geometry" />
        </mxCell>
        <mxCell id="X-89o3NhjQCAKY9GYFiA-4" value="&lt;div&gt;Returns server file path&lt;/div&gt;" style="text;html=1;align=center;verticalAlign=middle;whiteSpace=wrap;rounded=0;" vertex="1" parent="1">
          <mxGeometry x="-30" y="555" width="140" height="30" as="geometry" />
        </mxCell>
      </root>
    </mxGraphModel>
  </diagram>
</mxfile>
